<?xml version="1.0" encoding="UTF-8"?> <svg xmlns="http://www.w3.org/2000/svg" width="64" height="64" viewBox="0 0 64 64" fill="none"><path d="M42.6667 16C42.6667 11.5817 39.0849 8 34.6667 8H29.3333C24.9151 8 21.3333 11.5817 21.3333 16M26.6667 37.3333H37.3333M32 32V42.6667M20.8 56H43.2C47.6804 56 49.9206 56 51.6319 55.1281C53.1372 54.3611 54.3611 53.1372 55.1281 51.6319C56 49.9206 56 47.6804 56 43.2V31.4667C56 26.9862 56 24.746 55.1281 23.0347C54.3611 21.5294 53.1372 20.3056 51.6319 19.5386C49.9206 18.6667 47.6804 18.6667 43.2 18.6667H20.8C16.3196 18.6667 14.0794 18.6667 12.3681 19.5386C10.8628 20.3056 9.63893 21.5294 8.87195 23.0347C8 24.746 8 26.9862 8 31.4667V43.2C8 47.6804 8 49.9206 8.87195 51.6319C9.63893 53.1372 10.8628 54.3611 12.3681 55.1281C14.0794 56 16.3196 56 20.8 56Z" stroke="black" stroke-width="2" stroke-linecap="round" stroke-linejoin="round"></path></svg> 