<?xml version="1.0" encoding="UTF-8"?> <svg xmlns="http://www.w3.org/2000/svg" width="62" height="62" viewBox="0 0 62 62" fill="none"><path d="M49 1H13C6.37258 1 1 6.37258 1 13V49C1 55.6274 6.37258 61 13 61H49C55.6274 61 61 55.6274 61 49V13C61 6.37258 55.6274 1 49 1Z" stroke="#BDBDBD" stroke-miterlimit="10"></path><path d="M17.7604 21.1333C18.8271 16.52 25.7737 16.52 26.8271 21.1333C27.4537 23.84 25.7337 26.1333 24.2404 27.56C23.1471 28.6 21.4271 28.5867 20.3337 27.56C18.8537 26.1333 17.1337 23.84 17.7604 21.1333Z" stroke="#4F4F4F" stroke-width="1.5"></path><path d="M35.0933 37.1333C36.16 32.52 43.1467 32.52 44.2133 37.1333C44.84 39.84 43.12 42.1333 41.6133 43.56C40.52 44.6 38.7867 44.5867 37.6933 43.56C36.1867 42.1333 34.4667 39.84 35.0933 37.1333Z" stroke="#4F4F4F" stroke-width="1.5"></path><path d="M31.0003 21.6667H34.5736C37.0403 21.6667 38.1869 24.7201 36.3336 26.3467L25.6803 35.6667C23.8269 37.2801 24.9736 40.3334 27.4269 40.3334H31.0003" stroke="#4F4F4F" stroke-width="1.5" stroke-linecap="round" stroke-linejoin="round"></path><path d="M22.315 22.3334H22.3304" stroke="#4F4F4F" stroke-width="2" stroke-linecap="round" stroke-linejoin="round"></path><path d="M39.648 38.3334H39.6634" stroke="#4F4F4F" stroke-width="2" stroke-linecap="round" stroke-linejoin="round"></path></svg> 