<?xml version="1.0" encoding="UTF-8"?> <svg xmlns="http://www.w3.org/2000/svg" width="64" height="64" viewBox="0 0 64 64" fill="none"><path d="M40 42.6667C39.2436 39.6237 35.9493 37.3333 32 37.3333C28.0507 37.3333 24.7564 39.6237 24 42.6667M29.3333 8H34.6667M21.3333 13.3333H16.5333C13.5464 13.3333 12.0529 13.3333 10.9121 13.9146C9.90852 14.426 9.09262 15.2419 8.5813 16.2454C8 17.3862 8 18.8797 8 21.8667V44.8C8 47.7869 8 49.2804 8.5813 50.4213C9.09262 51.4248 9.90852 52.2407 10.9121 52.752C12.0529 53.3333 13.5464 53.3333 16.5333 53.3333H47.4667C50.4536 53.3333 51.9471 53.3333 53.088 52.752C54.0915 52.2407 54.9074 51.4248 55.4187 50.4213C56 49.2804 56 47.7869 56 44.8V21.8667C56 18.8797 56 17.3862 55.4187 16.2454C54.9074 15.2419 54.0915 14.426 53.088 13.9146C51.9471 13.3333 50.4536 13.3333 47.4667 13.3333H42.6667M34.6667 26.6667C34.6667 28.1394 33.4728 29.3333 32 29.3333C30.5272 29.3333 29.3333 28.1394 29.3333 26.6667C29.3333 25.1939 30.5272 24 32 24C33.4728 24 34.6667 25.1939 34.6667 26.6667Z" stroke="#333333" stroke-width="2" stroke-linecap="round" stroke-linejoin="round"></path></svg> 